<svg id="Layer_1" data-name="Layer 1" xmlns="http://www.w3.org/2000/svg" xmlns:xlink="http://www.w3.org/1999/xlink" viewBox="0 0 1519.89 323.23"><defs><style>.cls-1{fill:url(#linear-gradient);}.cls-2{fill:url(#linear-gradient-2);}.cls-3{fill:url(#linear-gradient-3);}.cls-4{fill:#39afa9;}.cls-10,.cls-12,.cls-13,.cls-4,.cls-6,.cls-8{fill-rule:evenodd;}.cls-5{fill:#17252a;}.cls-6{fill:#def2f1;}.cls-7{mask:url(#mask);}.cls-8{fill:#2b7a77;}.cls-9{mask:url(#mask-2);}.cls-10{fill:#f2eeeb;}.cls-11{mask:url(#mask-3);}.cls-12{fill:#fff;}.cls-13{fill:#38afa9;}</style><linearGradient id="linear-gradient" x1="-113.91" y1="776.9" x2="111.5" y2="604.36" gradientTransform="translate(315.76 -355.7)" gradientUnits="userSpaceOnUse"><stop offset="0" stop-color="#fff"/><stop offset="1"/></linearGradient><linearGradient id="linear-gradient-2" x1="-107.68" y1="745.29" x2="45.72" y2="700.39" gradientTransform="translate(292.04 -374.28)" gradientUnits="userSpaceOnUse"><stop offset="0" stop-color="#fff"/><stop offset="1" stop-color="#fff"/></linearGradient><linearGradient id="linear-gradient-3" x1="-25.66" y1="589.88" x2="75.98" y2="750.47" gradientTransform="translate(298.08 -389.74)" xlink:href="#linear-gradient-2"/><mask id="mask" x="133.73" y="85.51" width="182.07" height="149.72" maskUnits="userSpaceOnUse"><g transform="translate(-101.56 -165.56)"><rect class="cls-1" x="235.29" y="251.07" width="182.07" height="149.72"/></g></mask><mask id="mask-2" x="101.24" y="150.75" width="135.21" height="59.04" maskUnits="userSpaceOnUse"><g transform="translate(-101.56 -165.56)"><rect class="cls-2" x="202.8" y="316.31" width="135.21" height="59.04"/></g></mask><mask id="mask-3" x="109.52" y="8.46" width="203.65" height="180.16" maskUnits="userSpaceOnUse"><g transform="translate(-101.56 -165.56)"><rect class="cls-3" x="211.07" y="174.02" width="203.65" height="180.16"/></g></mask></defs><path class="cls-4" d="M296.8,378.39,235.29,389l97.19,20.31,89.15-92.81L418.21,243c-40.45,46-77.83,91.4-121.41,135.44" transform="translate(-101.56 -165.56)"/><path class="cls-5" d="M335.27,316.77,208.1,372.3,291,365.8ZM215.88,352.38l143.87-62.82L433,203.38l-25.55-20.44-36.2,14.74L354,244.74Zm97.53,115.71L281.5,435.34,325,398.57l84.89-83.66v-59.5l-41,46.68-.11.05-69.85,78.24L166.63,390.77l-54.3,42.32-10.77-10.77L341.21,235.51l18.1-49.35,50.57-20.6,32.89,26.31,39.6,16H450.64l-25.56,30.23v83.14l-89.7,88.4L335,410l-31.27,26.42,30.87,31.67h90.52v14.46H204.76V468.09Z" transform="translate(-101.56 -165.56)"/><polygon class="cls-5" points="225.45 251.16 53.17 229.58 55.13 213.57 231.9 235.71 225.45 251.16"/><polygon class="cls-6" points="109.52 188.61 262.48 121.82 340.34 30.19 313.17 8.46 274.69 24.14 256.34 74.17 109.52 188.61"/><polygon class="cls-4" points="236.45 150.75 101.24 209.79 189.4 202.88 236.45 150.75"/><g class="cls-7"><polygon class="cls-8" points="216.3 220.65 315.8 85.51 272.18 135.14 272.07 135.19 197.8 218.38 133.73 223.41 228.07 235.23 292.72 171.52 228.68 225.78 216.3 220.65"/></g><g class="cls-9"><polygon class="cls-10" points="113.63 208.82 236.45 150.75 101.24 209.79 113.63 208.82"/></g><g class="cls-11"><polygon class="cls-12" points="160.34 157.02 264.98 76.72 277.37 28.03 313.17 8.46 274.69 24.14 256.34 74.17 109.52 188.61 244.23 129.78 160.34 157.02"/></g><polygon class="cls-13" points="315.8 85.51 312.6 146.23 292.72 171.52 315.8 148.78 315.8 85.51"/><path class="cls-5" d="M490.11,415V305.48h78.83v19.9H510.8v29.94h55v19.12h-55V415Z" transform="translate(-101.56 -165.56)"/><path class="cls-5" d="M621.91,415V305.32h20.53V415Z" transform="translate(-101.56 -165.56)"/><path class="cls-5" d="M799.16,415H775.49l-31.81-36.67h-21V415H702V305.17c17.39,0,34.79.15,52.18.15,25.86.16,39.49,17.4,39.49,36.36,0,15.05-6.89,30.25-27.74,34.48l33.23,37.45ZM722.68,324.6v35.1h31.5c13.16,0,18.81-8.77,18.81-17.55s-5.8-17.55-18.81-17.55Z" transform="translate(-101.56 -165.56)"/><path class="cls-5" d="M945.06,335.57l-35.73,47.64h-4.07l-35-47.8v79.77H849.62V305.48h23.82l34.32,47.17,34.33-47.17h23.66v109.7H945.06Z" transform="translate(-101.56 -165.56)"/><path class="cls-5" d="M1025.3,415V305.32h20.53V415Z" transform="translate(-101.56 -165.56)"/><path class="cls-5" d="M1180.45,379.14V305.32h20.69V415h-16.77l-58.3-73v73h-20.68V305.32h16.76Z" transform="translate(-101.56 -165.56)"/><path class="cls-5" d="M1340.14,332.12c-7.36-7.05-18.33-11-27.89-11-23.51,0-37.77,17.87-37.77,40.43,0,18,10.5,36.68,37.77,36.68,8.62,0,16.14-1.89,24.76-8.78V370.05h-28V351.56h47v46.23c-10.81,12.38-24.44,19.74-43.72,19.74-41.22,0-58-27.11-58-55.95,0-30.87,19.27-59.39,58-59.39A58,58,0,0,1,1353,319Z" transform="translate(-101.56 -165.56)"/><path class="cls-5" d="M1431.35,305.32V395.9h56.42V415h-77.1V305.32Z" transform="translate(-101.56 -165.56)"/><path class="cls-5" d="M1619.1,415H1537V305.32h82.12v20.06h-61.59v25.23h59.4v19.28h-59.4v24.76h61.59Z" transform="translate(-101.56 -165.56)"/><path class="cls-5" d="M529.68,476.7a23.84,23.84,0,0,1-17.1,6.76c-16.5,0-23.91-11.37-24-23.33s7.74-23.85,24-23.85a23.27,23.27,0,0,1,16.64,6.89l-4.87,4.68a16.7,16.7,0,0,0-11.77-4.68c-11.56,0-16.83,8.51-16.76,16.9s5,16.57,16.76,16.57a17.64,17.64,0,0,0,12.09-4.94Z" transform="translate(-101.56 -165.56)"/><path class="cls-5" d="M579.78,460c0,12.28-7.47,23.53-23.27,23.53S533.25,472,533.25,460.07c0-13.85,9.68-23.85,23.39-23.85C572.18,436.28,579.78,447.72,579.78,460Zm-23.27,16.83c11.31,0,16.06-8,16.06-16.7,0-8.38-4.81-17.09-15.93-17.28-10.52,0-16.18,7.34-16.18,17.28C540.59,468.19,545.27,476.83,556.51,476.83Z" transform="translate(-101.56 -165.56)"/><path class="cls-5" d="M619.94,469.43V437.06h7.28v45.49H621.7l-25.8-32.1v32.1h-7.35V437.06h5.59Z" transform="translate(-101.56 -165.56)"/><path class="cls-5" d="M670.18,469.43V437.06h7.27v45.49h-5.52l-25.8-32.1v32.1h-7.34V437.06h5.59Z" transform="translate(-101.56 -165.56)"/><path class="cls-5" d="M722.62,482.55H689V437.06h33.41v7.08H696.3v12.29h25.09v6.76H696.3V475.4h26.32Z" transform="translate(-101.56 -165.56)"/><path class="cls-5" d="M769.93,476.7a23.82,23.82,0,0,1-17.09,6.76c-16.51,0-23.92-11.37-24-23.33s7.73-23.85,24-23.85a23.29,23.29,0,0,1,16.64,6.89l-4.88,4.68a16.69,16.69,0,0,0-11.76-4.68c-11.57,0-16.83,8.51-16.77,16.9s5,16.57,16.77,16.57a17.68,17.68,0,0,0,12.09-4.94Z" transform="translate(-101.56 -165.56)"/><path class="cls-5" d="M787.8,443.62H772.85v-6.56H810v6.56H795.15v38.93H787.8Z" transform="translate(-101.56 -165.56)"/><path class="cls-5" d="M857.73,447.13c-2.15-3.12-6.5-5-11.25-5.07-6.11,0-10.52,2.54-10.52,6.89s5.06,5.66,11,6.5c9.36,1.3,18.26,3.9,18.26,14.1s-9.35,14-18.84,14c-8.71,0-15.4-2.66-19.56-10.33l5.46-3.64c3.24,5.52,8.9,7.47,14.16,7.47,5.46,0,11.51-1.82,11.51-7.54,0-4.93-5.27-6.62-11.64-7.47-9-1.23-17.61-3.51-17.61-13.26-.06-9.42,9.36-13.06,17.55-13.06,6.56,0,13.13,1.56,17,7.67Z" transform="translate(-101.56 -165.56)"/><path class="cls-5" d="M913.16,447.72l-15.47,21.51h-1.56l-15.27-21.51v34.9h-7.28V437.13H882l15,21.31,15-21.31h8.45v45.49h-7.28Z" transform="translate(-101.56 -165.56)"/><path class="cls-5" d="M963.52,473H938.89l-4.29,9.55h-7.73l20.41-45.49h7.92l20.41,45.49h-7.73Zm-12.28-28.27-9.62,21.64h19.24Z" transform="translate(-101.56 -165.56)"/><path class="cls-5" d="M1021.3,482.55h-8.52l-13.84-15.72h-9.62v15.72H982V437c7.09,0,14.11.06,21.19.06,10.53,0,16,7.21,16,14.88,0,6.5-3.38,12.87-12.35,14.17l13.59,15.14Zm-32-38.86V460.2h13.84c6.05,0,8.71-3.84,8.71-8.13,0-4.09-2.66-8.38-8.64-8.38Z" transform="translate(-101.56 -165.56)"/><path class="cls-5" d="M1038.58,443.62h-14.95v-6.56h37.18v6.56h-14.88v38.93h-7.35Z" transform="translate(-101.56 -165.56)"/><path class="cls-5" d="M1101.36,482.55h-33.6V437.06h33.4v7.08H1075v12.29h25.08v6.76H1075V475.4h26.32Z" transform="translate(-101.56 -165.56)"/><path class="cls-5" d="M1150.1,482.55h-8.52l-13.84-15.72h-9.62v15.72h-7.27V437c7.08,0,14.1.06,21.18.06,10.53,0,16,7.21,16,14.88,0,6.5-3.38,12.87-12.34,14.17l13.58,15.14Zm-32-38.86V460.2H1132c6,0,8.7-3.84,8.7-8.13,0-4.09-2.66-8.38-8.64-8.38Z" transform="translate(-101.56 -165.56)"/><path class="cls-5" d="M1160.82,488.79h-4l1.43-6.17a3.14,3.14,0,0,1-2.73-3.25c0-4.94,8.26-5.14,8.26.19C1163.75,480.54,1163.29,481.38,1160.82,488.79Z" transform="translate(-101.56 -165.56)"/><path class="cls-5" d="M1219.83,469.43V437.06h7.28v45.49h-5.53l-25.8-32.1v32.1h-7.34V437.06H1194Z" transform="translate(-101.56 -165.56)"/><path class="cls-5" d="M1282.41,460c0,12.28-7.47,23.53-23.27,23.53s-23.26-11.51-23.26-23.46c0-13.85,9.68-23.85,23.39-23.85C1274.81,436.28,1282.41,447.72,1282.41,460Zm-23.27,16.83c11.31,0,16-8,16-16.7,0-8.38-4.8-17.09-15.92-17.28-10.52,0-16.18,7.34-16.18,17.28C1243.22,468.19,1247.9,476.83,1259.14,476.83Z" transform="translate(-101.56 -165.56)"/><path class="cls-5" d="M1300.35,443.62H1285.4v-6.56h37.17v6.56h-14.88v38.93h-7.34Z" transform="translate(-101.56 -165.56)"/><path class="cls-5" d="M1374.43,482.55V463.64h-24v18.91h-7.27V437.06h7.27v19.82h24V437.06h7.21v45.49Z" transform="translate(-101.56 -165.56)"/><path class="cls-5" d="M1424.73,473H1400.1l-4.29,9.55h-7.73l20.4-45.49h7.93l20.41,45.49h-7.74Zm-12.28-28.27-9.62,21.64h19.23Z" transform="translate(-101.56 -165.56)"/><path class="cls-5" d="M1482.5,482.55H1474l-13.84-15.72h-9.62v15.72h-7.28V437c7.08,0,14.1.06,21.19.06,10.52,0,16,7.21,16,14.88,0,6.5-3.38,12.87-12.35,14.17l13.58,15.14Zm-32-38.86V460.2h13.84c6,0,8.71-3.84,8.71-8.13,0-4.09-2.67-8.38-8.64-8.38Z" transform="translate(-101.56 -165.56)"/><path class="cls-5" d="M1507.46,437.06c15.53,0,22.61,11.11,22.81,22.36.26,11.5-6.89,23.13-22.81,23.13h-17.23V437.06Zm-10,38.47h10c11.11,0,15.79-8.18,15.59-16.18-.19-7.67-4.87-15.34-15.59-15.34h-10Z" transform="translate(-101.56 -165.56)"/><path class="cls-5" d="M1572.7,482.55h-33.6V437.06h33.41v7.08h-26.13v12.29h25.09v6.76h-25.09V475.4h26.32Z" transform="translate(-101.56 -165.56)"/><path class="cls-5" d="M1621.44,482.55h-8.51l-13.84-15.72h-9.62v15.72h-7.28V437c7.08,0,14.1.06,21.19.06,10.52,0,16,7.21,16,14.88,0,6.5-3.38,12.87-12.35,14.17l13.58,15.14Zm-32-38.86V460.2h13.84c6,0,8.71-3.84,8.71-8.13,0-4.09-2.66-8.38-8.64-8.38Z" transform="translate(-101.56 -165.56)"/></svg>